<svg width="138" height="72" viewBox="0 0 138 72" fill="none" xmlns="http://www.w3.org/2000/svg"><path d="M4.71652 8.0967V4.74725h8.13008V.263738H0V18.9363h4.71652v-6.4352h7.11388V8.0967H4.71652zM20.5643 13.0022l4.2735 5.9341h5.811l-5.0292-6.4088c2.241-.7121 3.6221-2.66376 3.6221-6.11871-.1043-4.37802-3.0488-6.145052-6.8533-6.145052h-7.3745V18.9363h4.7166v-5.9341h.8338zm1.9023-4.06154h-2.7361V4.66813h2.7361c2.9445 0 2.9445 4.27253 0 4.27253zM31.2644 6.40879v6.38241c0 4.2725 3.8306 6.4088 7.6611 6.4088 3.8305 0 7.635-2.1363 7.635-6.4088V6.40879C46.5605 2.13626 42.73 0 38.8994 0c-3.8305 0-7.635 2.10989-7.635 6.40879zm4.6644 6.38241V6.40879c0-1.37143 1.4593-2.10989 2.9185-2.10989 1.5114 0 3.0488.65934 3.0488 2.10989v6.38241c0 1.3451-1.4853 2.0308-2.9706 2.0308s-2.9967-.6594-2.9967-2.0308zM49.0371.263738V18.9363h4.6644v-7.4638l-.5994-3.61316.1303-.02637L54.848 11.578l4.1693 7.3583h4.7165V.263738h-4.6383V8.72967c.026 0 .4951 3.21763.5211 3.21763l-.1302.0263-1.5635-3.74503-4.456-7.964832h-4.4298zM75.1676 4.72088h4.8989V.237363H65.5522V4.72088h4.8989V18.9363h4.7165V4.72088zM88.3341 13.5297V9.04615H80.204v4.48355h8.1301zM95.7163 7.59561v-2.9011h8.1297V.263738H90.9997V18.9363h12.8463v-4.4572h-8.1297v-2.7956h7.4787V7.59561h-7.4787zM106.319.263738V18.9363h4.664v-7.4638l-.599-3.61316.13-.02637 1.616 3.74503 4.169 7.3583h4.717V.263738h-4.639V8.72967c.027 0 .496 3.21763.522 3.21763l-.131.0263-1.563-3.74503-4.456-7.964832h-4.43zM130.834.263738h-6.905V18.9363h6.905c3.7.0263 7.166-1.8462 7.166-6.1451V6.51429c0-4.35165-3.466-6.250552-7.166-6.250552zm.156 14.241762h-2.371V4.66813h2.371c1.564 0 2.32.76484 2.32 1.97803v5.82854c0 1.2132-.73 2.0308-2.32 2.0308zM0 26.6374v18.6725h4.6644v-5.3802l-.3127-3.7715.13029-.0263 2.47552 6.4088h3.20519l2.4234-6.4088.1563.0263-.2866 3.7715-.0261 5.3802h4.6905V26.6374h-4.6644l-3.90875 9.1252-3.88265-9.1252H0zM35.688 45.3099l-6.5927-18.6725h-4.2475l-6.4363 18.6725h5.0031l1.1466-3.7451h4.925l1.1986 3.7451h5.0032zm-7.3223-7.9385h-2.7622l1.355-5.4593h.1303l1.2769 5.4593zM38.7028 39.4022l-2.9446 2.7956c1.7199 2.2418 4.0651 3.3758 6.28 3.3758 3.3876 0 7.1399-1.978 7.2963-5.5912.2084-4.589-3.0749-5.7494-6.3582-6.356-1.4332-.3165-2.3973-.844-2.4495-1.7407.0782-2.1626 3.3876-2.2417 5.3159-.1582l3.0488-2.3737c-1.9022-2.3472-4.0651-2.9802-6.3061-2.9802-3.3875 0-6.6708 1.9253-6.6708 5.5912 0 3.5605 2.71 5.4594 5.6806 5.9341 1.5114.211 3.2052.8176 3.1531 1.8725-.1303 2.0044-4.1954 1.8989-6.0455-.3692zM59.8738 31.0945h4.8989V26.611H50.2583v4.4835h4.8989v14.2154h4.7166V31.0945zM71.3122 33.9692v-2.9011h8.1302v-4.4307H66.5957v18.6725h12.8467v-4.4571h-8.1302v-2.7957h7.4787v-4.0879h-7.4787zM87.4654 39.3758l4.2735 5.9341h5.811l-5.0292-6.4088c2.241-.7121 3.6221-2.6637 3.6221-6.1187-.1043-4.378-3.0488-6.145-6.8533-6.145H81.915v18.6725h4.7166v-5.9341h.8338zm1.9023-4.0615h-2.7361v-4.2725h2.7361c2.9445 0 2.9445 4.2725 0 4.2725zM100.82 39.4022l-2.9448 2.7956c1.7198 2.2418 4.0648 3.3758 6.2798 3.3758 3.388 0 7.14-1.978 7.296-5.5912.209-4.589-3.074-5.7494-6.358-6.356-1.433-.3165-2.397-.844-2.449-1.7407.078-2.1626 3.387-2.2417 5.316-.1582l3.048-2.3737c-1.902-2.3472-4.065-2.9802-6.306-2.9802-3.387 0-6.6704 1.9253-6.6704 5.5912 0 3.5605 2.7104 5.4594 5.6804 5.9341 1.512.211 3.205.8176 3.153 1.8725-.13 2.0044-4.195 1.8989-6.045-.3692zM0 53.011v18.6725h12.1952v-4.6681H4.69046V53.011H0zM18.7635 60.3429v-2.9011h8.1301V53.011H14.0469v18.6725h12.8467v-4.4571h-8.1301v-2.7956h7.4786v-4.0879h-7.4786zM45.0272 71.6835L38.4345 53.011H34.187l-6.4364 18.6725h5.0032l1.1466-3.745h4.9249l1.1987 3.745h5.0032zm-7.3224-7.9384h-2.7621l1.355-5.4594h.1303l1.2768 5.4594zM55.1346 58.5495l3.9088-1.8198c-1.2769-2.9802-4.013-3.9824-6.4103-3.9824-3.6482 0-7.2963 2.1098-7.2963 6.3296v6.4088c0 4.2989 3.6481 6.4616 7.2963 6.4616 3.7002 0 7.2441-2.1627 7.2441-6.4616V60.844h-7.4265V64.8h2.9445v.6857c0 2.9011-5.394 2.9275-5.394 0v-6.4088c0-2.4527 4.1172-3.0329 5.1334-.5274zM66.6529 65.433V53.011h-4.7165v12.422c-.026 8.756 14.6968 8.756 14.7228 0V53.011h-4.7165v12.422c-.026 3.0066-5.2898 3.0066-5.2898 0zM84.1377 60.3429v-2.9011h8.1301V53.011H79.4212v18.6725h12.8466v-4.4571h-8.1301v-2.7956h7.4787v-4.0879h-7.4787z" fill="#fff"/></svg>